<svg width="63" height="33" viewBox="0 0 63 33" fill="none" xmlns="http://www.w3.org/2000/svg">
<rect width="63" height="33" fill="#F5F5F5"/>
<g id="Sedona Rooms - Light Mode">
<path d="M-658 -1158C-658 -1159.1 -657.105 -1160 -656 -1160H14621C14622.1 -1160 14623 -1159.1 14623 -1158V1100C14623 1101.1 14622.1 1102 14621 1102H-656C-657.104 1102 -658 1101.1 -658 1100V-1158Z" fill="#404040"/>
<path d="M-656 -1159H14621V-1161H-656V-1159ZM14622 -1158V1100H14624V-1158H14622ZM14621 1101H-656V1103H14621V1101ZM-657 1100V-1158H-659V1100H-657ZM-656 1101C-656.552 1101 -657 1100.55 -657 1100H-659C-659 1101.66 -657.657 1103 -656 1103V1101ZM14622 1100C14622 1100.55 14621.6 1101 14621 1101V1103C14622.7 1103 14624 1101.66 14624 1100H14622ZM14621 -1159C14621.6 -1159 14622 -1158.55 14622 -1158H14624C14624 -1159.66 14622.7 -1161 14621 -1161V-1159ZM-656 -1161C-657.657 -1161 -659 -1159.66 -659 -1158H-657C-657 -1158.55 -656.552 -1159 -656 -1159V-1161Z" fill="black" fill-opacity="0.1"/>
<g id="Frame">
<rect width="1440" height="1170" transform="translate(-27 -614)" fill="#1C2936"/>
<g id="Group 101197">
<g id="div.css-1rqoxtp">
<path d="M-27 -534H242V236H-27V-534Z" fill="#16202B" fill-opacity="0.4"/>
<path d="M241.85 -534V236H242.15V-534H241.85Z" fill="#68758C" fill-opacity="0.25"/>
</g>
<g id="Component 18">
<g id="Turtle Button">
<rect x="-10" y="-15.4004" width="241" height="64.2191" rx="12" fill="#CBD7FF" fill-opacity="0.01"/>
<rect x="-10" y="-15.4004" width="241" height="64.2191" rx="12" stroke="black" stroke-width="0.1"/>
<g id="Vector">
<path d="M48.0353 32.7361C32.7382 32.7305 17.6921 32.7375 2.64603 32.7081C1.98185 32.7068 1.31795 32.5388 0.654021 32.388C0.284889 32.3041 0.0250441 31.9629 0.0577758 31.5858C0.0906347 31.2072 0.407546 30.9169 0.787531 30.9129C3.00775 30.8899 5.23464 30.7732 7.4397 30.963C9.80013 31.1662 10.8482 30.434 11.5673 27.7013C12.3909 24.5711 12.1011 22.5496 9.52513 20.9013C8.82839 20.4555 8.24931 19.7875 7.68847 19.1775C7.37856 18.8405 6.88667 18.0919 7.31827 17.9391C10.4096 16.8437 11.1753 13.9113 12.3735 11.008C15.298 3.92175 24.3404 -0.485253 32.2215 0.831733C36.6347 1.56923 40.5416 3.14055 43.5581 5.95587C46.6055 8.7999 50.5499 10.0442 54.713 9.83616C58.911 9.6264 61.1246 13.8192 59.3432 18.0461C57.8596 21.5666 55.0528 23.0159 51.8028 23.7049C51.2357 23.8251 50.661 23.9017 50.0859 23.9757C49.5243 24.048 48.9719 24.4962 49.038 25.0586C49.7268 30.9158 49.7291 30.9061 55.1119 30.9207C57.5325 30.9272 59.9532 30.9685 62.3729 31.0335C62.9878 31.0499 62.7606 32.166 62.1871 32.3881C60.0214 33.2267 57.8505 32.5574 55.8073 32.6931C53.3086 32.859 50.794 32.7369 48.0353 32.7361ZM38.1563 20.1079C35.0757 21.8589 31.7636 22.5021 28.4243 21.6849C25.1827 20.8916 22.0185 19.6623 18.8754 18.4517C16.9496 17.7099 15.0534 17.27 13.0258 17.4799C11.287 17.6599 11.0939 19.9464 12.3673 21.144C13.073 21.8078 13.9244 21.8306 14.8205 21.4623C15.3557 21.2424 15.836 21.045 16.3032 20.853C16.5649 20.7454 16.8661 20.8262 17.039 21.0501C17.2794 21.3615 17.1763 21.8133 16.8421 22.0207C14.8116 23.2807 13.7867 25.0894 13.2183 27.2019C12.7108 29.088 14.3149 30.7968 16.2681 30.7968C17.869 30.7968 19.3701 29.6698 19.5503 28.0791C19.5732 27.8775 19.588 27.6765 19.5919 27.4752C19.6444 24.7985 20.6292 24.6436 22.7554 25.4057C28.1476 27.3385 33.5708 27.7094 38.7864 24.5221C39.4851 24.0951 40.3209 24.9774 40.3436 25.7959C40.3774 27.0211 40.4088 28.1724 40.5722 29.3006C40.6597 29.9046 41.3177 30.8381 41.7675 30.8758C42.3404 30.9239 42.9149 30.9508 43.4929 30.9647C45.959 31.0238 48.0784 28.8643 47.572 26.4501C47.3348 25.3198 46.9626 24.2997 46.3536 23.4422C45.1162 21.6997 44.7323 19.9484 46.5277 21.1078C50.0134 23.3587 56.0813 21.4233 57.7918 17.4038C59.1286 14.2624 57.5919 11.2272 54.4956 11.6559C52.5129 11.9305 50.6645 13.4979 48.7946 14.5674C48.1609 14.9298 47.5948 16.0274 47.0844 15.9628C43.5061 15.51 41.2227 18.2765 38.1563 20.1079ZM25.6021 19.2927C29.757 20.4107 33.844 20.7085 37.7637 18.2712C38.7823 17.6378 39.8065 17.0151 40.848 16.3884C44.0036 14.4896 45.6473 10.5049 43.0213 7.92284C40.6598 5.6009 35.552 5.77218 35.7078 9.08034C35.7422 9.81151 36.0129 10.6211 36.5899 11.5408C36.7387 11.7779 36.7406 12.1264 36.7096 12.5483C36.6704 13.0819 35.7183 13.6057 35.6102 13.0817C34.7267 8.79992 31.8601 8.93718 28.7075 8.8887C26.223 8.85049 24.6018 9.66366 23.3172 11.8824C23.0448 12.353 22.4561 12.6023 21.9337 12.8979C21.7472 13.0035 21.5103 12.9866 21.3527 12.8413C21.2127 12.7123 21.1649 12.5099 21.245 12.3372C21.9329 10.8537 23.3211 9.43845 23.6673 7.93164C24.2622 5.34288 20.3296 4.72835 18.2034 6.32044C17.4816 6.86091 16.8133 7.46172 16.2156 8.09896C13.0634 11.4598 15.9803 15.7906 20.3107 17.3653C22.0347 17.9922 23.784 18.6292 25.6021 19.2927ZM35.5763 27.885C31.4645 29.1516 27.4228 28.5979 23.2515 27.5073C22.2474 27.2447 21.2243 27.9456 21.0935 28.9751C20.9654 29.9843 21.7566 30.8418 22.774 30.8418C27.6181 30.8418 32.2874 30.8418 37.1071 30.8418C38.0786 30.8418 38.8509 30.029 38.7968 29.0589C38.7326 27.9095 37.5667 27.1621 36.486 27.5586C36.203 27.6624 35.9053 27.7694 35.5763 27.885ZM31.2237 2.59249C30.8422 2.52321 30.3958 2.49599 30.0096 2.53034C28.2153 2.68988 26.421 2.84943 24.6268 3.00897C24.2827 3.03956 23.9887 3.26941 23.876 3.59593C23.7692 3.90555 23.8456 4.24751 24.0532 4.50082C24.9302 5.57076 25.816 7.07878 26.6709 7.05785C28.5919 7.01079 30.7598 7.64515 32.7063 7.19949C35.4349 6.57475 33.9778 3.09257 31.2237 2.59249Z" fill="#805BEB" fill-opacity="0.15"/>
<path d="M38.3237 19.9973C41.2288 18.2755 43.5122 15.5091 47.0905 15.9619C47.6009 16.0265 48.167 14.9289 48.8007 14.5665C50.6706 13.497 52.519 11.9296 54.5016 11.655C57.598 11.2263 59.1347 14.2615 57.7979 17.4028C56.0874 21.4224 50.0195 23.3578 46.5338 21.1068C44.7384 19.9475 45.1223 21.6988 46.3597 23.4413C46.9687 24.2988 47.3409 25.3189 47.578 26.4492C48.0845 28.8634 45.9651 31.0229 43.499 30.9637C42.921 30.9499 42.3465 30.923 41.7735 30.8749C41.3238 30.8371 40.6658 29.9037 40.5783 29.2997C40.4149 28.1715 40.3835 27.0202 40.3497 25.795C40.327 24.9765 39.4912 24.0942 38.7925 24.5212C33.5769 27.7085 28.1537 27.3376 22.7614 25.4048C20.6353 24.6427 19.6505 24.7976 19.598 27.4743C19.5941 27.6756 19.5793 27.8766 19.5564 28.0782C19.3762 29.6689 17.8751 30.7959 16.2742 30.7959C14.321 30.7959 12.7169 29.0871 13.2244 27.201C13.7928 25.0885 14.8176 23.2798 16.8481 22.0198C17.1824 21.8124 17.2855 21.3606 17.0451 21.0492C16.8722 20.8253 16.5709 20.7445 16.3093 20.8521C15.8421 21.044 15.3618 21.2415 14.8266 21.4614C13.9305 21.8297 13.0791 21.8069 12.3733 21.1431C11.1 19.9455 11.2931 17.659 13.0319 17.479C15.0594 17.2691 16.9556 17.709 18.8814 18.4507C22.0246 19.6614 25.1888 20.8907 28.4304 21.684C31.7697 22.5012 35.0818 21.858 38.3237 19.9973Z" fill="#28B446"/>
<path d="M25.4041 19.2174C23.6807 18.5901 21.9911 17.9759 20.307 17.3641C15.9761 15.7909 13.0594 11.4594 16.2116 8.09855C16.8093 7.46131 17.4776 6.8605 18.1994 6.32003C20.3256 4.72794 24.2582 5.34247 23.6633 7.93123C23.317 9.43804 21.9288 10.8533 21.241 12.3368C21.1609 12.5095 21.2086 12.7119 21.3487 12.8409C21.5063 12.9862 21.7432 13.0031 21.9297 12.8975C22.4521 12.6019 23.0407 12.3526 23.3132 11.882C24.5977 9.66325 26.2189 8.85008 28.7034 8.88829C31.8561 8.93677 34.7227 8.79951 35.6061 13.0812C35.7142 13.6052 36.6663 13.0815 36.7056 12.5479C36.7366 12.126 36.7347 11.7775 36.5859 11.5404C36.0088 10.6207 35.7382 9.8111 35.7038 9.07993C35.5479 5.77177 40.6557 5.60049 43.0172 7.92243C45.6433 10.5045 43.9995 14.4892 40.844 16.388C39.8025 17.0147 38.7783 17.6374 37.7596 18.2708C33.84 20.708 29.7529 20.4103 25.4041 19.2174Z" fill="#E6E7E7"/>
<path d="M35.7733 27.8298C36.0204 27.7392 36.2546 27.652 36.4852 27.5652C37.5626 27.1597 38.7293 27.9095 38.7935 29.0589C38.8476 30.029 38.0753 30.8418 37.1038 30.8418C32.2841 30.8418 27.6148 30.8418 22.7706 30.8418C21.7533 30.8418 20.9621 29.9843 21.0902 28.9751C21.221 27.9456 22.2441 27.2449 23.2482 27.507C27.4227 28.5969 31.4874 29.1444 35.7733 27.8298Z" fill="#CFFAFB"/>
<path d="M30.2762 2.53836C30.6351 2.51216 31.0158 2.53656 31.3695 2.60323C34.0276 3.10428 35.4992 6.4576 32.8849 7.15224C30.8932 7.68145 28.6511 7.00615 26.6712 7.05465C25.8163 7.07558 24.9305 5.56756 24.0535 4.49762C23.8459 4.24431 23.7696 3.90235 23.8764 3.59273C23.9891 3.26621 24.283 3.03634 24.6271 3.0058C26.4523 2.84378 28.2912 2.68323 30.2762 2.53836Z" fill="#28B446"/>
</g>
</g>
</g>
</g>
</g>
</g>
</svg>
